<svg xmlns="http://www.w3.org/2000/svg" viewBox="0 0 400 120">
  <!-- River waves -->
  <path d="M0 95 Q25 85 50 90 Q75 95 100 88 Q125 81 150 87 Q175 93 200 86 Q225 79 250 85 Q275 91 300 84 Q325 77 350 83 Q375 89 400 82" fill="none" stroke="#2a6496" stroke-width="2.5" opacity=".5"/>
  <path d="M0 105 Q30 95 60 100 Q90 105 120 98 Q150 91 180 97 Q210 103 240 96 Q270 89 300 95 Q330 101 360 94 Q390 87 400 92" fill="none" stroke="#2a6496" stroke-width="2" opacity=".3"/>
  <!-- Heron silhouette -->
  <g transform="translate(10, 8) scale(0.85)">
    <!-- Body -->
    <path d="M45 75 Q42 60 44 50 Q46 40 50 35 Q54 30 56 20 Q57 15 55 10 Q54 7 58 5 Q62 3 65 6 Q67 8 64 12 Q62 16 60 20 Q58 28 56 35 Q55 40 56 45 Q58 50 62 55 Q66 58 72 60 Q78 61 82 58 Q85 55 83 50 Q82 48 84 47 Q86 48 87 52 Q88 56 85 62 Q80 68 72 68 Q64 68 58 65 Q52 62 48 70 Q46 76 48 82 Q50 88 46 95 Q44 98 42 95 Q40 90 42 85 Q44 80 45 75Z" fill="#d4c5a9"/>
    <!-- Eye -->
    <circle cx="61" cy="8" r="1.5" fill="#132841"/>
    <!-- Beak -->
    <path d="M65 6 L78 4 L65 8Z" fill="#b8a88a"/>
    <!-- Legs -->
    <path d="M47 92 L44 110 M44 110 L40 112 M44 110 L48 112" fill="none" stroke="#b8a88a" stroke-width="1.5" stroke-linecap="round"/>
    <path d="M50 88 L52 108 M52 108 L48 110 M52 108 L56 110" fill="none" stroke="#b8a88a" stroke-width="1.5" stroke-linecap="round"/>
  </g>
  <!-- OSG Text -->
  <text x="105" y="72" font-family="Georgia, 'Playfair Display', serif" font-size="72" font-weight="700" fill="#d4c5a9" letter-spacing="6">OSG</text>
  <!-- Tagline -->
  <text x="108" y="90" font-family="'Inter', 'Helvetica Neue', sans-serif" font-size="11" fill="#7a9ab8" letter-spacing="3.5" text-transform="uppercase">OSWEGATCHIE SHORELINE GROUP</text>
</svg>
