<svg xmlns="http://www.w3.org/2000/svg" viewBox="0 0 200 200" width="200" height="200">
  <circle cx="100" cy="100" r="100" fill="white"/>
  <path d="M20 130 Q40 122 60 127 Q80 132 100 125 Q120 118 140 123 Q160 128 180 121" fill="none" stroke="#2a6496" stroke-width="2" opacity=".4"/>
  <path d="M30 138 Q50 132 70 136 Q90 140 110 134 Q130 128 150 132 Q170 136 185 130" fill="none" stroke="#2a6496" stroke-width="1.5" opacity=".25"/>
  <g transform="translate(60, 18) scale(0.55)">
    <path d="M45 75 Q42 60 44 50 Q46 40 50 35 Q54 30 56 20 Q57 15 55 10 Q54 7 58 5 Q62 3 65 6 Q67 8 64 12 Q62 16 60 20 Q58 28 56 35 Q55 40 56 45 Q58 50 62 55 Q66 58 72 60 Q78 61 82 58 Q85 55 83 50 Q82 48 84 47 Q86 48 87 52 Q88 56 85 62 Q80 68 72 68 Q64 68 58 65 Q52 62 48 70 Q46 76 48 82 Q50 88 46 95 Q44 98 42 95 Q40 90 42 85 Q44 80 45 75Z" fill="#1e3a5f"/>
    <circle cx="61" cy="8" r="1.5" fill="white"/>
    <path d="M65 6 L78 4 L65 8Z" fill="#2c5e3f"/>
    <path d="M47 92 L44 110 M44 110 L40 112 M44 110 L48 112" fill="none" stroke="#1e3a5f" stroke-width="1.5" stroke-linecap="round"/>
    <path d="M50 88 L52 108 M52 108 L48 110 M52 108 L56 110" fill="none" stroke="#1e3a5f" stroke-width="1.5" stroke-linecap="round"/>
  </g>
  <text x="100" y="115" font-family="Georgia, 'Playfair Display', serif" font-size="42" font-weight="700" fill="#132841" text-anchor="middle" letter-spacing="4">OSG</text>
  <text x="100" y="155" font-family="'Inter', 'Helvetica Neue', sans-serif" font-size="6.5" fill="#1e3a5f" text-anchor="middle" letter-spacing="2.5">OSWEGATCHIE SHORELINE GROUP</text>
</svg>
